<svg width="20" height="20" viewBox="0 0 20 20" fill="none" xmlns="http://www.w3.org/2000/svg">
<mask id="mask0_501_4732" style="mask-type:alpha" maskUnits="userSpaceOnUse" x="0" y="0" width="20" height="20">
<rect width="20" height="20" fill="#D9D9D9"/>
</mask>
<g mask="url(#mask0_501_4732)">
<path fill-rule="evenodd" clip-rule="evenodd" d="M17.7268 6.76782C16.6879 5.75223 15.7813 4.7707 13.8726 4.66855C12.3308 4.60046 11.6274 5.54405 10.1858 5.58296C8.84528 5.61701 8.94548 4.53333 6.16331 4.83781C3.74982 5.10922 1.63887 7.54703 1.80619 10.9664C1.97351 14.6571 4.52124 19.7701 6.90068 19.7701C8.57679 19.736 8.97855 18.9238 10.3531 18.9238C12.0623 18.9238 12.465 19.9394 13.8055 19.7361C16.1178 19.3975 18.2969 15.7068 18.2969 14.5219C17.5573 14.1846 16.9181 13.6607 16.4421 13.0017C15.9661 12.3427 15.6696 11.5712 15.5818 10.7631C15.5597 9.96786 15.746 9.18069 16.1223 8.4798C16.4986 7.77891 17.0518 7.18869 17.7268 6.76782Z" fill="white"/>
<path fill-rule="evenodd" clip-rule="evenodd" d="M9.6899 4.94059C9.62035 3.79398 9.99199 2.66419 10.7287 1.7828C11.4654 0.901413 12.5113 0.335189 13.6521 0.200195C14.0246 2.46484 12.1618 5.07581 9.6899 4.94059Z" fill="white"/>
</g>
</svg>
