<svg width="24" height="24" viewBox="0 0 24 24" fill="none" xmlns="http://www.w3.org/2000/svg">
<g clip-path="url(#clip0_507_6788)">
<path d="M20.52 15.2099L18.72 13.3999V8.93989C18.7439 7.28372 18.1678 5.6748 17.0981 4.41023C16.0283 3.14566 14.5372 2.31083 12.9 2.05989C11.9498 1.93476 10.9838 2.01371 10.0666 2.29147C9.1493 2.56923 8.30182 3.03942 7.58068 3.67066C6.85953 4.30189 6.2813 5.07967 5.88456 5.95209C5.48782 6.82451 5.2817 7.7715 5.27995 8.72989V13.3999L3.47995 15.2099C3.25386 15.4398 3.10053 15.7312 3.03915 16.0477C2.97777 16.3642 3.01105 16.6918 3.13483 16.9895C3.25861 17.2872 3.4674 17.5419 3.7351 17.7216C4.0028 17.9013 4.31753 17.9981 4.63995 17.9999H7.99995V18.3399C8.04666 19.3551 8.4939 20.3104 9.24368 20.9964C9.99345 21.6825 10.9846 22.0433 12 21.9999C13.0153 22.0433 14.0065 21.6825 14.7562 20.9964C15.506 20.3104 15.9532 19.3551 16 18.3399V17.9999H19.36C19.6824 17.9981 19.9971 17.9013 20.2648 17.7216C20.5325 17.5419 20.7413 17.2872 20.8651 16.9895C20.9889 16.6918 21.0221 16.3642 20.9608 16.0477C20.8994 15.7312 20.746 15.4398 20.52 15.2099ZM14 18.3399C13.9445 18.8209 13.7056 19.262 13.333 19.5712C12.9605 19.8804 12.4829 20.034 12 19.9999C11.517 20.034 11.0395 19.8804 10.6669 19.5712C10.2943 19.262 10.0554 18.8209 9.99995 18.3399V17.9999H14V18.3399ZM5.50995 15.9999L6.68995 14.8199C6.87712 14.6338 7.02561 14.4126 7.12687 14.1689C7.22813 13.9251 7.28016 13.6638 7.27995 13.3999V8.72989C7.2805 8.05529 7.42533 7.38862 7.70474 6.7746C7.98416 6.16059 8.39167 5.61345 8.89995 5.16989C9.40137 4.71558 9.99553 4.37564 10.6413 4.17363C11.2871 3.97161 11.969 3.91233 12.64 3.99989C13.7964 4.18767 14.8461 4.78691 15.5958 5.68727C16.3455 6.58764 16.7447 7.72853 16.72 8.89989V13.3999C16.7184 13.6631 16.7689 13.924 16.8684 14.1677C16.9679 14.4114 17.1146 14.633 17.3 14.8199L18.49 15.9999H5.50995Z" fill="black"/>
</g>
<defs>
<clipPath id="clip0_507_6788">
<rect width="24" height="24" fill="white"/>
</clipPath>
</defs>
</svg>
