<svg width="20" height="20" viewBox="0 0 20 20" fill="none" xmlns="http://www.w3.org/2000/svg">
<mask id="mask0_501_4744" style="mask-type:alpha" maskUnits="userSpaceOnUse" x="0" y="0" width="20" height="20">
<rect width="20" height="20" fill="#D9D9D9"/>
</mask>
<g mask="url(#mask0_501_4744)">
<path d="M9.75525 1C4.368 1 0 4.44566 0 8.69991C0 11.4389 1.81767 13.8333 4.54842 15.2009L3.68681 18.6467C3.67381 18.6977 3.67676 18.7513 3.69486 18.8007C3.71297 18.8501 3.74555 18.8929 3.78841 18.9233C3.83128 18.9538 3.8822 18.9704 3.93477 18.9712C3.98735 18.9721 4.03908 18.9571 4.08293 18.928L8.05485 16.2698C8.61779 16.3505 9.18567 16.3918 9.75435 16.3936C15.1407 16.3936 19.5074 12.9486 19.5074 8.69342C19.5074 4.43825 15.1425 1 9.75525 1Z" fill="#3B1E1E"/>
</g>
</svg>
